<?xml version="1.0" encoding="utf-8"?>
<!-- Generator: Adobe Illustrator 16.0.0, SVG Export Plug-In . SVG Version: 6.00 Build 0)  -->
<!DOCTYPE svg PUBLIC "-//W3C//DTD SVG 1.1//EN" "http://www.w3.org/Graphics/SVG/1.1/DTD/svg11.dtd">
<svg version="1.1" id="Layer_1" xmlns="http://www.w3.org/2000/svg" xmlns:xlink="http://www.w3.org/1999/xlink" x="0px" y="0px"
	 width="128px" height="128px" viewBox="-14 -14 128 128" enable-background="new -14 -14 128 128" xml:space="preserve">
<g id="Captions">
</g>
<g id="Your_Icon">
	<g>
		<circle cx="96.475" cy="2.904" r="1.769"/>
		<circle cx="94.67" cy="8.516" r="1.768"/>
		<circle cx="92.871" cy="14.128" r="1.769"/>
		<path d="M78.749,28.334c-0.869,0.446-1.211,1.513-0.769,2.381c0.451,0.867,1.518,1.211,2.387,0.766
			c0.865-0.448,1.21-1.515,0.765-2.383C80.686,28.229,79.615,27.887,78.749,28.334z"/>
		<circle cx="74.314" cy="32.6" r="1.768"/>
		<circle cx="69.073" cy="35.297" r="1.767"/>
		<path d="M110.726,15.872c0.863-0.448,1.211-1.515,0.764-2.382c-0.445-0.869-1.514-1.211-2.383-0.764
			c-0.869,0.446-1.21,1.511-0.765,2.38C108.789,15.975,109.856,16.317,110.726,15.872z"/>
		<path d="M105.212,15.309c-0.929-0.297-1.923,0.214-2.224,1.143c-0.299,0.93,0.212,1.926,1.146,2.225
			c0.927,0.298,1.924-0.213,2.221-1.143C106.653,16.605,106.143,15.607,105.212,15.309z"/>
		<circle cx="99.431" cy="19.688" r="1.769"/>
		<path d="M93.741,33.142c-0.868,0.447-1.21,1.515-0.764,2.382c0.446,0.868,1.511,1.211,2.38,0.768
			c0.868-0.449,1.211-1.517,0.767-2.385C95.676,33.04,94.61,32.698,93.741,33.142z"/>
		<circle cx="97.246" cy="39.959" r="1.768"/>
		<path d="M99.939,43.432c0.979,0,1.771,0.792,1.771,1.769s-0.793,1.768-1.771,1.768c-0.976,0-1.767-0.791-1.767-1.768
			S98.964,43.432,99.939,43.432z"/>
		<circle cx="78.91" cy="4.292" r="1.769"/>
		<circle cx="81.604" cy="9.535" r="1.767"/>
		<path d="M83.762,16.462c0.927,0.297,1.923-0.214,2.22-1.144c0.301-0.932-0.212-1.927-1.139-2.226
			c-0.934-0.299-1.925,0.214-2.227,1.144C82.318,15.167,82.83,16.164,83.762,16.462z"/>
		<circle cx="86.023" cy="35.456" r="1.767"/>
		<circle cx="84.224" cy="41.068" r="1.769"/>
		<circle cx="82.423" cy="46.682" r="1.767"/>
		<circle cx="100.009" cy="28.182" r="1.768"/>
		<circle cx="105.618" cy="29.982" r="1.768"/>
		<path d="M111.77,30.099c-0.929-0.299-1.923,0.214-2.219,1.143c-0.303,0.929,0.211,1.925,1.143,2.224
			c0.927,0.298,1.923-0.213,2.221-1.142C113.215,31.394,112.702,30.397,111.77,30.099z"/>
		<path d="M55.574,12.683c1.743,0.561,4.417,2.782,7.009,4.931c3.387,2.813,6.89,5.72,10.272,6.805
			c4.003,1.285,11.484,1.974,15.976,2.288l1.486-4.629c-4.044-0.259-12.151-0.908-16.024-2.149c-2.511-0.807-5.799-3.534-8.7-5.944
			c-3.068-2.55-5.965-4.955-8.579-5.792c-5.256-1.687-14.565-0.583-18.788,8.828l-7.986-2.563c-1.859-0.595-3.852,0.427-4.448,2.287
			l-2.098,6.536C8.126,24.216-6.003,34.506-11.057,50.251c-6.571,20.481,4.705,42.409,25.184,48.982
			c20.476,6.572,42.406-4.701,48.98-25.183c5.04-15.708-0.426-32.257-12.484-42.087l2.108-6.574c0.597-1.86-0.428-3.851-2.288-4.448
			l-7.678-2.464C46.188,11.544,53.011,11.862,55.574,12.683z M33.631,28.99l-1.414,4.403c-0.188,0.583-0.038,1.458,0.332,1.944
			l1.537,2.031c0.368,0.486,1.146,1.042,1.728,1.228l1.572,0.505c0.585,0.188,0.935,0.724,0.784,1.193
			c-0.15,0.471-0.711,1.097-1.248,1.391l-3.029,1.658c-0.538,0.292-0.5,0.689,0.083,0.878l1.508,0.487
			c0.58,0.188,0.906,0.819,0.717,1.402l-1.226,3.806c-0.188,0.581,0.134,1.211,0.718,1.398l1.702,0.547
			c0.583,0.188,0.944,0.703,0.803,1.147c-0.141,0.441-0.733,0.651-1.319,0.462l-5.222-1.675c-0.584-0.188-1.531-0.174-2.105,0.03
			l-2.665,0.946c-0.577,0.202-1.203,0.845-1.389,1.43l-2.032,6.329c-0.185,0.584-0.813,0.91-1.398,0.723l-0.295-0.095
			c-0.583-0.187-0.906-0.816-0.72-1.401l1.168-3.645c0.188-0.582-0.134-1.21-0.718-1.397l-2.858-0.917
			c-0.578-0.187-1.21,0.136-1.4,0.719l-0.959,2.937c-0.189,0.581-0.067,1.475,0.271,1.986l3.131,4.736
			c0.334,0.514,1.091,1.085,1.669,1.272l7.045,2.263c0.58,0.188,1.41,0.7,1.838,1.135l7.469,7.566
			c0.432,0.439,0.627,1.269,0.441,1.853l-0.103,0.323l-0.001-0.002c-0.188,0.584-0.682,1.428-1.103,1.873l-4.539,4.843
			c-0.42,0.444-1.215,1.022-1.769,1.285l-11.457,5.403c-0.554,0.261-0.53,0.628,0.052,0.815l1.008,0.326
			c0.583,0.185,0.93,0.756,0.767,1.268c-0.166,0.51-0.779,0.777-1.363,0.589l-4.332-1.391c-0.583-0.187-0.906-0.815-0.718-1.401
			l3.62-11.272c0.187-0.585,0.814-0.905,1.398-0.721l1.205,0.388c0.582,0.187,1.214-0.14,1.4-0.717l0.385-1.207
			c0.188-0.583-0.137-1.213-0.719-1.402l-1.204-0.388c-0.583-0.186-0.908-0.815-0.719-1.397l2.121-6.603
			c0.187-0.582-0.139-1.211-0.723-1.401l-1.793-0.575c-0.579-0.184-1.359-0.738-1.725-1.23l-4.407-5.86
			c-0.369-0.487-0.781-1.378-0.916-1.976L11.3,52.45c-0.134-0.598-0.721-1.239-1.305-1.426l-1.272-0.409
			c-0.582-0.186-1.13-0.834-1.214-1.441l-1.035-7.391c-0.082-0.604-0.002-1.578,0.185-2.162l1.173-3.651
			c0.187-0.583-0.161-1.066-0.772-1.074L5.694,34.88C13.493,29.087,23.646,26.694,33.631,28.99z M45.515,45.974
			c-0.58,0.194-1.534,0.202-2.114,0.014l-0.458-0.146c-0.582-0.187-0.907-0.818-0.719-1.398l1.106-3.445
			c0.187-0.582-0.136-1.21-0.72-1.398l-1.534-0.492c-0.583-0.188-0.906-0.817-0.719-1.4l1.771-5.522
			c4.771,2.562,8.762,6.165,11.75,10.438C53.595,43.032,45.515,45.974,45.515,45.974z"/>
	</g>
</g>
</svg>
