<?xml version="1.0" encoding="utf-8"?>
<!-- Generator: Adobe Illustrator 15.1.0, SVG Export Plug-In . SVG Version: 6.00 Build 0)  -->
<!DOCTYPE svg PUBLIC "-//W3C//DTD SVG 1.1//EN" "http://www.w3.org/Graphics/SVG/1.1/DTD/svg11.dtd">
<svg version="1.1" id="Layer_1" xmlns="http://www.w3.org/2000/svg" xmlns:xlink="http://www.w3.org/1999/xlink" x="0px" y="0px"
	 width="94.969px" height="100px" viewBox="0 0 94.969 100" enable-background="new 0 0 94.969 100" xml:space="preserve">
<circle cx="74.062" cy="1.5" r="1.5"/>
<circle cx="74.062" cy="6.5" r="1.5"/>
<circle cx="74.062" cy="11.5" r="1.5"/>
<path d="M68.46,28.755c-0.586,0.585-1.537,0.585-2.123,0c-0.584-0.586-0.584-1.536,0.002-2.121c0.584-0.586,1.535-0.586,2.121-0.001
	C69.044,27.219,69.044,28.169,68.46,28.755z"/>
<circle cx="63.862" cy="31.229" r="1.5"/>
<circle cx="60.327" cy="34.765" r="1.5"/>
<path d="M88.935,8.28c-0.586,0.585-1.537,0.585-2.123,0c-0.584-0.586-0.584-1.536,0.002-2.121c0.584-0.586,1.535-0.586,2.121-0.001
	C89.519,6.744,89.519,7.694,88.935,8.28z"/>
<circle cx="84.337" cy="10.755" r="1.5"/>
<circle cx="80.802" cy="14.29" r="1.5"/>
<path d="M81.817,26.631c0.585,0.586,0.585,1.537,0,2.123c-0.586,0.584-1.536,0.584-2.121-0.002
	c-0.586-0.584-0.586-1.535-0.001-2.121C80.281,26.047,81.231,26.047,81.817,26.631z"/>
<circle cx="84.292" cy="31.229" r="1.5"/>
<circle cx="87.827" cy="34.764" r="1.5"/>
<path d="M61.299,6.112c0.585,0.586,0.585,1.537,0,2.123c-0.586,0.584-1.536,0.584-2.121-0.002c-0.586-0.584-0.586-1.535-0.001-2.121
	C59.763,5.528,60.713,5.528,61.299,6.112z"/>
<circle cx="63.773" cy="10.71" r="1.5"/>
<circle cx="67.309" cy="14.245" r="1.5"/>
<circle cx="74.062" cy="30.5" r="1.5"/>
<circle cx="74.062" cy="35.5" r="1.5"/>
<circle cx="74.062" cy="40.5" r="1.5"/>
<circle cx="83.469" cy="21" r="1.5"/>
<circle cx="88.469" cy="21" r="1.5"/>
<circle cx="93.469" cy="21" r="1.5"/>
<path d="M43.563,20c1.553,0,4.291,1.102,6.939,2.166C53.967,23.56,57.549,25,60.562,25c3.568,0,9.789-1.383,13.5-2.293v-4.124
	C70.729,19.422,64.011,21,60.562,21c-2.239,0-5.601-1.352-8.567-2.545C48.855,17.192,45.89,16,43.563,16
	c-4.682,0-11.916,3.304-12.885,12h-7.116c-1.656,0-3,1.343-3,3v6.273C8.522,42.032,0,53.768,0,67.5C0,85.449,14.551,100,32.5,100
	S65,85.449,65,67.5c0-13.686-8.463-25.387-20.438-30.178V31c0-1.657-1.344-3-3-3h-6.841C35.689,21.512,41.279,20,43.563,20z"/>
</svg>
