<?xml version="1.0" encoding="utf-8"?>
<!-- Generator: Adobe Illustrator 16.0.0, SVG Export Plug-In . SVG Version: 6.00 Build 0)  -->
<!DOCTYPE svg PUBLIC "-//W3C//DTD SVG 1.1//EN" "http://www.w3.org/Graphics/SVG/1.1/DTD/svg11.dtd">
<svg version="1.1" id="Layer_1" xmlns="http://www.w3.org/2000/svg" xmlns:xlink="http://www.w3.org/1999/xlink" x="0px" y="0px"
	 width="128px" height="128px" viewBox="0 0 128 128" enable-background="new 0 0 128 128" xml:space="preserve">
<g id="Captions">
</g>
<g id="Your_Icon" opacity="0.4">
	<g>
		<circle cx="111.475" cy="11.904" r="1.769"/>
		<circle cx="109.669" cy="17.516" r="1.768"/>
		<circle cx="107.87" cy="23.128" r="1.769"/>
		<path d="M93.748,37.334c-0.869,0.446-1.211,1.513-0.77,2.381c0.451,0.867,1.519,1.211,2.388,0.766
			c0.864-0.448,1.21-1.515,0.765-2.383C95.686,37.229,94.613,36.887,93.748,37.334z"/>
		<circle cx="89.312" cy="41.6" r="1.768"/>
		<circle cx="84.072" cy="44.297" r="1.767"/>
		<path d="M125.727,24.872c0.861-0.448,1.211-1.515,0.764-2.382c-0.445-0.869-1.514-1.211-2.383-0.764
			c-0.869,0.446-1.211,1.511-0.767,2.38C123.788,24.975,124.854,25.317,125.727,24.872z"/>
		<path d="M120.211,24.309c-0.929-0.297-1.923,0.214-2.225,1.143c-0.299,0.93,0.213,1.926,1.146,2.225
			c0.928,0.298,1.926-0.213,2.223-1.143C121.65,25.605,121.143,24.607,120.211,24.309z"/>
		<circle cx="114.432" cy="28.688" r="1.769"/>
		<path d="M108.74,42.142c-0.868,0.447-1.211,1.515-0.766,2.382c0.446,0.868,1.512,1.211,2.381,0.768
			c0.867-0.449,1.211-1.517,0.768-2.385C110.675,42.04,109.607,41.698,108.74,42.142z"/>
		<circle cx="112.245" cy="48.959" r="1.768"/>
		<path d="M114.938,52.432c0.979,0,1.771,0.792,1.771,1.769c0,0.977-0.793,1.768-1.771,1.768c-0.977,0-1.768-0.791-1.768-1.768
			C113.171,53.224,113.963,52.432,114.938,52.432z"/>
		<circle cx="93.909" cy="13.292" r="1.769"/>
		<circle cx="96.604" cy="18.535" r="1.767"/>
		<path d="M98.762,25.462c0.928,0.297,1.924-0.214,2.221-1.144c0.301-0.932-0.213-1.927-1.141-2.226
			c-0.934-0.299-1.925,0.214-2.227,1.144C97.316,24.167,97.829,25.164,98.762,25.462z"/>
		<circle cx="101.021" cy="44.456" r="1.767"/>
		<circle cx="99.225" cy="50.068" r="1.769"/>
		<circle cx="97.422" cy="55.682" r="1.767"/>
		<circle cx="115.008" cy="37.182" r="1.768"/>
		<circle cx="120.617" cy="38.982" r="1.768"/>
		<path d="M126.77,39.099c-0.93-0.299-1.922,0.214-2.22,1.143c-0.303,0.929,0.212,1.925,1.144,2.224
			c0.928,0.298,1.924-0.213,2.222-1.142C128.214,40.394,127.701,39.397,126.77,39.099z"/>
		<path d="M70.573,21.683c1.741,0.561,4.417,2.782,7.009,4.931c3.389,2.812,6.891,5.72,10.271,6.805
			c4.002,1.285,11.483,1.974,15.977,2.288l1.484-4.629c-4.043-0.259-12.149-0.908-16.022-2.149c-2.511-0.807-5.799-3.534-8.7-5.944
			c-3.066-2.55-5.965-4.955-8.578-5.792c-5.257-1.687-14.564-0.583-18.789,8.828l-7.986-2.563c-1.859-0.595-3.852,0.427-4.448,2.287
			l-2.098,6.536C23.125,33.216,8.996,43.506,3.942,59.251c-6.571,20.481,4.705,42.409,25.184,48.981
			c20.476,6.572,42.406-4.7,48.979-25.184c5.039-15.708-0.426-32.257-12.483-42.087l2.106-6.574c0.599-1.86-0.428-3.851-2.287-4.448
			l-7.677-2.464C61.187,20.544,68.012,20.862,70.573,21.683z M48.63,37.99l-1.414,4.403c-0.188,0.583-0.038,1.458,0.332,1.944
			l1.537,2.031c0.368,0.486,1.146,1.042,1.728,1.228l1.572,0.505c0.585,0.188,0.935,0.724,0.784,1.193
			c-0.15,0.471-0.711,1.097-1.248,1.391l-3.029,1.658c-0.538,0.292-0.5,0.689,0.083,0.878l1.508,0.487
			c0.58,0.188,0.906,0.819,0.717,1.401l-1.226,3.807c-0.188,0.581,0.134,1.211,0.718,1.398l1.702,0.547
			c0.583,0.188,0.944,0.703,0.803,1.146c-0.141,0.441-0.733,0.651-1.319,0.462l-5.222-1.675c-0.584-0.188-1.531-0.174-2.105,0.03
			l-2.665,0.946c-0.577,0.201-1.203,0.845-1.389,1.43l-2.032,6.327c-0.185,0.586-0.813,0.91-1.398,0.725l-0.295-0.095
			c-0.583-0.188-0.906-0.816-0.72-1.401l1.168-3.646c0.188-0.582-0.134-1.208-0.718-1.396l-2.858-0.917
			c-0.578-0.187-1.21,0.136-1.4,0.72l-0.959,2.937c-0.189,0.581-0.067,1.476,0.271,1.985l3.131,4.735
			c0.334,0.515,1.091,1.085,1.669,1.272l7.045,2.263c0.58,0.188,1.41,0.7,1.838,1.136l7.469,7.565
			c0.432,0.438,0.627,1.271,0.441,1.854l-0.103,0.321l-0.001-0.002c-0.188,0.584-0.682,1.429-1.103,1.873l-4.539,4.843
			c-0.42,0.444-1.215,1.022-1.769,1.285l-11.457,5.403c-0.554,0.261-0.53,0.628,0.052,0.813l1.008,0.326
			c0.583,0.186,0.93,0.756,0.767,1.268c-0.166,0.512-0.779,0.777-1.363,0.59l-4.332-1.391c-0.583-0.188-0.906-0.814-0.718-1.402
			l3.62-11.271c0.187-0.585,0.814-0.903,1.398-0.721l1.205,0.388c0.582,0.188,1.214-0.14,1.4-0.717l0.385-1.207
			c0.188-0.583-0.137-1.213-0.719-1.4l-1.204-0.39c-0.583-0.187-0.908-0.813-0.719-1.396l2.121-6.604
			c0.187-0.582-0.139-1.211-0.723-1.399L34.562,75.9c-0.579-0.185-1.359-0.737-1.725-1.229l-4.407-5.86
			c-0.369-0.485-0.781-1.377-0.916-1.976l-1.215-5.385c-0.134-0.599-0.721-1.239-1.305-1.427l-1.272-0.408
			c-0.582-0.186-1.13-0.834-1.214-1.441l-1.035-7.391c-0.082-0.604-0.002-1.578,0.185-2.162l1.173-3.651
			c0.187-0.583-0.161-1.066-0.772-1.074l-1.366-0.016C28.492,38.087,38.645,35.694,48.63,37.99z M60.514,54.975
			c-0.58,0.193-1.534,0.201-2.114,0.014l-0.458-0.146c-0.582-0.187-0.907-0.818-0.719-1.398L58.329,50
			c0.187-0.582-0.136-1.21-0.72-1.398l-1.534-0.492c-0.583-0.188-0.906-0.817-0.719-1.4l1.771-5.522
			c4.771,2.562,8.762,6.165,11.75,10.438C68.596,52.032,60.514,54.975,60.514,54.975z"/>
	</g>
</g>
</svg>
